<svg xmlns="http://www.w3.org/2000/svg" xmlns:xlink="http://www.w3.org/1999/xlink" width="500" zoomAndPan="magnify" viewBox="0 0 375 374.999991" height="500" preserveAspectRatio="xMidYMid meet" version="1.0"><path fill="#05b7d2" d="M 216.722656 1.089844 C 208.570312 2.421875 198.644531 7.238281 192.347656 13.09375 C 186.046875 18.871094 180.492188 28.355469 178.417969 37.027344 C 177.160156 42.210938 177.308594 53.917969 178.714844 59.179688 C 179.304688 61.625 179.605469 63.847656 179.304688 64.144531 C 177.675781 65.625 130.109375 99.042969 129.882812 98.820312 C 129.808594 98.671875 128.253906 96.226562 126.550781 93.484375 C 119.808594 82.960938 107.582031 72.957031 95.949219 68.511719 C 85.945312 64.660156 81.128906 63.773438 70.164062 63.773438 C 58.828125 63.773438 51.570312 65.332031 42.308594 69.628906 C 16.082031 81.703125 0 110.082031 3.410156 138.238281 C 5.484375 155.351562 12.226562 168.691406 24.820312 180.472656 C 33.269531 188.398438 43.195312 193.585938 56.609375 197.144531 C 57.941406 197.515625 57.867188 197.886719 54.382812 222.1875 L 51.273438 243.675781 L 46.828125 244.636719 C 31.195312 248.195312 17.042969 262.125 12.671875 278.199219 C 10.964844 284.5 10.964844 295.539062 12.59375 301.761719 C 17.039062 318.582031 29.710938 331.253906 46.527344 335.769531 C 52.828125 337.398438 63.867188 337.398438 70.164062 335.695312 C 84.316406 331.839844 97.285156 320.207031 102.175781 306.871094 L 103.730469 302.574219 L 106.769531 303.015625 C 108.476562 303.3125 125.441406 305.757812 144.632812 308.5 L 179.457031 313.460938 L 181.011719 319.761719 C 184.050781 331.394531 187.683594 338.730469 194.941406 347.769531 C 208.574219 364.738281 232.28125 374.222656 254.140625 371.625 C 269.851562 369.703125 282.074219 363.917969 293.484375 353.101562 C 308.597656 338.578125 316.15625 318.132812 313.859375 297.828125 C 312.898438 289.160156 311.414062 283.675781 307.933594 276.121094 C 304.304688 268.195312 299.933594 262.117188 293.261719 255.671875 L 287.929688 250.632812 L 290 247.890625 C 291.109375 246.410156 296.816406 239.074219 302.742188 231.515625 C 312.746094 218.625 313.484375 217.804688 315.710938 217.953125 C 316.96875 218.027344 321.042969 218.324219 324.746094 218.621094 C 346.527344 220.175781 367.125 205.429688 372.90625 184.09375 C 374.980469 176.460938 374.683594 165.273438 372.160156 157.640625 C 368.238281 145.636719 359.417969 135.339844 348.378906 130.003906 C 340.003906 125.929688 336.894531 125.261719 327.261719 125.261719 C 319.855469 125.261719 317.925781 125.558594 312.816406 127.339844 C 309.554688 128.449219 305.773438 130.082031 304.515625 130.898438 L 302.074219 132.378906 L 300.296875 130.230469 C 299.332031 129.121094 289.332031 117.488281 278.070312 104.445312 L 257.691406 80.742188 L 259.398438 78.886719 C 262.804688 75.328125 267.027344 67.847656 268.804688 62.4375 C 270.363281 57.769531 270.582031 55.621094 270.511719 47.027344 C 270.511719 38.136719 270.285156 36.507812 268.582031 32.0625 C 263.097656 17.6875 252.871094 7.6875 238.722656 2.941406 C 232.574219 0.867188 223.167969 0.0507812 216.722656 1.089844 Z M 230.054688 17.757812 C 235.539062 20.128906 238.722656 24.796875 239.539062 31.761719 L 240.058594 35.910156 L 233.167969 35.910156 L 233.167969 32.726562 C 233.167969 25.464844 226.796875 21.238281 220.644531 24.425781 C 218.125 25.683594 216.125 29.613281 216.125 33.242188 C 216.125 35.835938 216.054688 35.910156 213.164062 35.910156 L 210.199219 35.910156 L 210.199219 31.984375 C 210.277344 25.246094 213.757812 19.761719 219.609375 17.761719 C 223.390625 16.351562 226.722656 16.429688 230.054688 17.757812 Z M 245.46875 40.578125 C 247.171875 42.582031 247.246094 43.023438 247.246094 55.175781 L 247.246094 67.769531 L 245.097656 70.144531 L 242.949219 72.585938 L 226.351562 72.734375 C 207.609375 72.957031 204.863281 72.511719 202.792969 69.027344 C 201.53125 66.953125 201.3125 65.25 201.3125 55.394531 C 201.3125 37.535156 200.566406 38.054688 225.613281 38.28125 L 243.691406 38.503906 Z M 185.011719 73.554688 C 185.011719 75.109375 194.050781 83.925781 198.792969 87.039062 C 207.011719 92.375 213.089844 94.078125 224.28125 94.078125 C 234.28125 94.078125 237.914062 93.265625 245.839844 89.261719 L 249.914062 87.1875 L 270.65625 111.265625 C 281.996094 124.457031 291.921875 136.089844 292.664062 137.125 C 294.074219 138.902344 294.074219 138.902344 291.105469 142.234375 C 288.882812 144.753906 283.398438 154.089844 283.179688 155.71875 C 283.105469 156.015625 139.074219 130.230469 138.625 129.789062 C 138.402344 129.5625 137.882812 126.824219 137.515625 123.785156 C 137.21875 120.675781 136.40625 116.007812 135.664062 113.261719 C 134.996094 110.59375 134.699219 108.222656 134.996094 107.929688 C 136.105469 106.816406 183.96875 73.03125 184.488281 72.953125 C 184.785156 72.960938 185.011719 73.257812 185.011719 73.554688 Z M 77.425781 91.1875 C 83.796875 94.375 87.722656 101.042969 88.464844 110.082031 L 88.910156 115.269531 L 84.535156 115.042969 L 80.164062 114.820312 L 79.722656 110.375 C 78.90625 101.484375 75.128906 97.929688 67.421875 98.300781 C 63.792969 98.523438 62.382812 98.964844 60.828125 100.375 C 58.015625 102.96875 56.089844 107.5625 56.089844 111.714844 L 56.089844 115.269531 L 51.863281 115.046875 L 47.566406 114.824219 L 47.789062 110.378906 C 48.164062 103.339844 49.867188 99.117188 54.164062 94.820312 C 58.535156 90.449219 61.128906 89.414062 68.386719 89.339844 C 72.609375 89.257812 74.3125 89.628906 77.425781 91.1875 Z M 94.617188 119.269531 C 95.726562 119.859375 97.429688 121.269531 98.246094 122.308594 C 99.726562 124.160156 99.804688 125.125 99.804688 141.796875 C 99.726562 160.6875 99.726562 160.6875 95.578125 163.503906 C 93.652344 164.691406 91.429688 164.835938 68.460938 164.835938 C 41.265625 164.835938 40.824219 164.761719 37.636719 160.6875 C 36.15625 158.835938 36.078125 157.796875 36.078125 141.941406 C 36.078125 127.347656 36.226562 124.898438 37.335938 123.347656 C 38.671875 121.421875 40.742188 119.640625 42.742188 118.753906 C 43.335938 118.457031 54.820312 118.234375 68.15625 118.234375 C 88.242188 118.160156 92.839844 118.378906 94.617188 119.269531 Z M 336.527344 142.609375 C 340.230469 144.90625 342.898438 149.796875 343.34375 155.207031 L 343.785156 159.648438 L 337.046875 159.648438 L 336.527344 156.167969 C 335.785156 151.351562 334.453125 148.90625 331.710938 147.792969 C 328.96875 146.679688 324.671875 147.273438 322.746094 148.980469 C 321.1875 150.386719 319.855469 154.386719 319.855469 157.574219 C 319.855469 159.5 319.632812 159.648438 316.890625 159.648438 L 313.929688 159.648438 L 313.929688 156.09375 C 313.929688 152.238281 316.449219 146.015625 318.96875 143.867188 C 323.117188 140.164062 331.636719 139.570312 336.527344 142.609375 Z M 208.9375 161.945312 C 248.132812 168.910156 280.214844 174.617188 280.289062 174.6875 C 280.882812 176.542969 281.917969 186.027344 281.550781 186.398438 C 281.179688 186.621094 248.136719 200.253906 207.980469 216.554688 C 167.824219 232.855469 126.257812 249.75 115.511719 254.121094 L 96.101562 262.046875 L 92.691406 258.269531 C 88.691406 253.824219 81.132812 248.710938 74.984375 246.265625 C 72.539062 245.304688 70.464844 244.5625 70.390625 244.488281 C 70.167969 244.488281 76.691406 198.773438 76.984375 198.625 C 77.058594 198.476562 79.949219 197.882812 83.210938 197.214844 C 99.289062 194.105469 114.035156 184.992188 123.960938 172.097656 C 127.886719 167.058594 132.554688 158.464844 134.261719 153.128906 C 135.003906 150.757812 135.890625 149.273438 136.632812 149.273438 C 137.21875 149.277344 169.820312 154.980469 208.9375 161.945312 Z M 348.675781 163.800781 L 350.972656 165.722656 L 350.972656 192.027344 L 349.050781 194.027344 L 347.046875 195.953125 L 310.375 195.953125 L 308.078125 194.027344 L 305.78125 192.105469 L 305.78125 178.988281 C 305.78125 166.320312 305.855469 165.800781 307.488281 164.316406 C 308.378906 163.503906 309.636719 162.613281 310.230469 162.394531 C 310.820312 162.167969 319.269531 161.949219 328.902344 161.949219 L 346.390625 161.875 Z M 289.105469 199.144531 C 290.292969 200.847656 292.589844 203.664062 294.144531 205.371094 L 296.960938 208.410156 L 284.957031 223.894531 C 278.363281 232.339844 272.582031 239.753906 272.140625 240.195312 C 271.472656 240.9375 269.765625 240.785156 263.917969 239.234375 C 253.472656 236.488281 240.355469 236.488281 230.128906 239.15625 C 207.53125 245.078125 189.675781 261.753906 182.859375 283.386719 C 181.601562 287.242188 180.414062 291.390625 180.191406 292.5 C 179.820312 294.355469 179.523438 294.574219 177.746094 294.207031 C 176.636719 293.984375 160.261719 291.613281 141.292969 288.945312 C 122.324219 286.28125 106.394531 283.835938 105.800781 283.539062 C 104.988281 283.097656 102.542969 275.910156 101.800781 271.683594 C 101.722656 271.015625 132.84375 257.972656 193.152344 233.375 C 243.460938 212.847656 285.175781 196.035156 285.769531 196.035156 C 286.359375 196.035156 287.847656 197.363281 289.105469 199.144531 Z M 65.574219 261.605469 C 69.722656 264.046875 72.390625 269.308594 72.390625 275.015625 L 72.390625 278.941406 L 69.425781 278.941406 C 66.535156 278.941406 66.464844 278.867188 66.464844 276.347656 C 66.464844 273.089844 64.980469 269.382812 62.90625 267.605469 C 61.128906 265.976562 55.792969 265.679688 53.421875 266.941406 C 51.273438 268.050781 49.421875 272.273438 49.421875 275.90625 L 49.421875 278.945312 L 46.085938 278.945312 C 42.828125 278.945312 42.75 278.871094 42.75 276.5 C 42.75 272.792969 44.753906 266.71875 46.824219 264.273438 C 50.976562 259.308594 59.496094 258.046875 65.574219 261.605469 Z M 256.582031 263.976562 C 262.953125 267.234375 266.65625 273.609375 267.695312 283.167969 L 268.214844 287.835938 L 259.839844 287.835938 L 259.839844 284.28125 C 259.839844 280.058594 257.394531 274.875 254.433594 272.726562 C 251.46875 270.578125 244.507812 270.578125 241.613281 272.726562 C 237.835938 275.539062 236.574219 277.914062 236.28125 283.023438 L 235.984375 287.839844 L 227.019531 287.839844 L 227.464844 282.503906 C 228.277344 272.949219 233.019531 265.832031 240.429688 263.019531 C 244.355469 261.457031 252.726562 261.976562 256.582031 263.976562 Z M 78.761719 282.945312 L 81.28125 285.464844 L 81.28125 296.949219 C 81.28125 303.324219 80.988281 309.324219 80.539062 310.359375 C 79.058594 314.285156 77.058594 314.582031 56.753906 314.359375 L 38.160156 314.136719 L 36.382812 312.0625 C 34.675781 310.058594 34.605469 309.617188 34.605469 297.984375 C 34.679688 289.460938 34.976562 285.460938 35.644531 284.203125 C 37.566406 280.71875 38.902344 280.496094 58.242188 280.425781 L 76.246094 280.425781 Z M 273.402344 291.835938 C 274.734375 292.351562 276.585938 293.757812 277.625 294.796875 C 279.480469 296.871094 279.480469 296.871094 279.699219 313.765625 C 279.921875 333.03125 279.699219 334.144531 274.660156 336.734375 C 271.914062 338.144531 270.363281 338.21875 247.914062 338.21875 C 214.125 338.21875 216.125 339.699219 216.125 314.804688 L 216.125 297.613281 L 218.125 295.167969 C 221.683594 290.945312 222.421875 290.871094 247.835938 290.796875 C 265.84375 290.796875 271.546875 291.019531 273.402344 291.835938 Z M 273.402344 291.835938 " fill-opacity="1" fill-rule="nonzero"/><path fill="#05b7d2" d="M 222.941406 49.324219 C 220.421875 50.289062 219.3125 53.25 220.792969 55.398438 C 221.460938 56.363281 222.050781 58.511719 222.203125 60.066406 C 222.425781 62.585938 222.648438 62.957031 224.277344 62.957031 C 225.90625 62.957031 226.128906 62.585938 226.347656 59.847656 C 226.496094 58.140625 227.089844 56.367188 227.683594 55.921875 C 228.945312 54.8125 229.09375 51.183594 227.832031 50.214844 C 226.203125 48.953125 224.722656 48.660156 222.941406 49.324219 Z M 222.941406 49.324219 " fill-opacity="1" fill-rule="nonzero"/><path fill="#05b7d2" d="M 65.277344 133.863281 C 62.019531 135.421875 61.050781 140.164062 63.5 142.605469 C 64.609375 143.714844 64.980469 145.050781 64.980469 147.71875 C 64.980469 150.089844 65.425781 151.792969 66.167969 152.535156 C 67.5 153.941406 67.648438 153.941406 69.503906 152.976562 C 70.613281 152.308594 70.90625 151.347656 70.90625 148.238281 C 70.90625 145.273438 71.277344 144.011719 72.390625 142.976562 C 74.683594 140.902344 74.390625 136.457031 71.945312 134.53125 C 69.792969 132.828125 67.722656 132.605469 65.277344 133.863281 Z M 65.277344 133.863281 " fill-opacity="1" fill-rule="nonzero"/><path fill="#05b7d2" d="M 325.933594 173.429688 C 324.226562 174.617188 323.636719 178.394531 325.042969 179.285156 C 325.484375 179.507812 325.785156 180.992188 325.785156 182.472656 C 325.785156 185.882812 326.675781 187.289062 328.453125 186.917969 C 329.488281 186.769531 329.933594 185.953125 330.082031 183.582031 C 330.230469 181.878906 330.824219 180.101562 331.414062 179.65625 C 333.042969 178.246094 332.675781 174.765625 330.824219 173.429688 C 329.933594 172.765625 328.824219 172.246094 328.378906 172.246094 C 327.933594 172.246094 326.824219 172.765625 325.933594 173.429688 Z M 325.933594 173.429688 " fill-opacity="1" fill-rule="nonzero"/><path fill="#05b7d2" d="M 54.609375 293.019531 C 52.832031 294.796875 52.753906 295.910156 54.234375 297.910156 C 54.828125 298.65625 55.347656 300.503906 55.347656 301.984375 C 55.347656 307.765625 59.867188 307.617188 60.535156 301.835938 C 60.757812 300.058594 61.347656 297.910156 61.792969 297.09375 C 64.015625 292.949219 58.089844 289.539062 54.609375 293.019531 Z M 54.609375 293.019531 " fill-opacity="1" fill-rule="nonzero"/><path fill="#05b7d2" d="M 243.539062 307.839844 C 241.613281 309.765625 241.539062 313.988281 243.464844 315.765625 C 244.503906 316.730469 245.019531 318.359375 245.167969 321.101562 C 245.316406 323.917969 245.761719 325.324219 246.726562 325.917969 C 249.023438 327.398438 250.578125 325.621094 250.800781 321.171875 C 250.945312 318.652344 251.542969 316.582031 252.503906 315.394531 C 254.355469 313.023438 254.28125 310.726562 252.355469 308.28125 C 250.433594 305.839844 245.835938 305.542969 243.539062 307.839844 Z M 243.539062 307.839844 " fill-opacity="1" fill-rule="nonzero"/></svg>