<svg xmlns="http://www.w3.org/2000/svg" xmlns:xlink="http://www.w3.org/1999/xlink" width="500" zoomAndPan="magnify" viewBox="0 0 375 112.499997" height="150" preserveAspectRatio="xMidYMid meet" version="1.0"><defs><g/><clipPath id="id1"><path d="M 1 4.746094 L 103.871094 4.746094 L 103.871094 107 L 1 107 Z M 1 4.746094 " clip-rule="nonzero"/></clipPath></defs><g fill="#ffffff" fill-opacity="1"><g transform="translate(120.152484, 72.624076)"><g><path d="M 17.734375 -36.1875 C 19.941406 -36.1875 21.90625 -35.863281 23.625 -35.21875 C 25.34375 -34.570312 26.960938 -33.601562 28.484375 -32.3125 L 24.515625 -27.578125 C 23.460938 -28.390625 22.425781 -29 21.40625 -29.40625 C 20.382812 -29.8125 19.296875 -30.015625 18.140625 -30.015625 C 15.765625 -30.015625 13.890625 -29.007812 12.515625 -27 C 11.140625 -25 10.453125 -21.910156 10.453125 -17.734375 C 10.453125 -13.617188 11.140625 -10.566406 12.515625 -8.578125 C 13.890625 -6.597656 15.800781 -5.609375 18.25 -5.609375 C 19.539062 -5.609375 20.710938 -5.851562 21.765625 -6.34375 C 22.816406 -6.832031 23.953125 -7.535156 25.171875 -8.453125 L 28.90625 -3.671875 C 27.570312 -2.347656 25.960938 -1.257812 24.078125 -0.40625 C 22.191406 0.4375 20.113281 0.859375 17.84375 0.859375 C 14.582031 0.859375 11.742188 0.144531 9.328125 -1.28125 C 6.910156 -2.707031 5.03125 -4.820312 3.6875 -7.625 C 2.351562 -10.425781 1.6875 -13.796875 1.6875 -17.734375 C 1.6875 -21.578125 2.375 -24.890625 3.75 -27.671875 C 5.125 -30.460938 7.023438 -32.578125 9.453125 -34.015625 C 11.878906 -35.460938 14.640625 -36.1875 17.734375 -36.1875 Z M 17.734375 -36.1875 "/></g></g></g><g fill="#ffffff" fill-opacity="1"><g transform="translate(151.450007, 72.624076)"><g><path d="M 15.546875 -32.71875 C 14.390625 -32.71875 13.554688 -32.445312 13.046875 -31.90625 C 12.535156 -31.363281 12.28125 -30.445312 12.28125 -29.15625 L 12.28125 -27.0625 L 18.65625 -27.0625 L 17.78125 -21.453125 L 12.28125 -21.453125 L 12.28125 0 L 4.234375 0 L 4.234375 -21.453125 L 0.15625 -21.453125 L 0.15625 -27.0625 L 4.234375 -27.0625 L 4.234375 -29.453125 C 4.234375 -32.171875 5.125 -34.390625 6.90625 -36.109375 C 8.6875 -37.828125 11.242188 -38.6875 14.578125 -38.6875 C 17.265625 -38.6875 19.726562 -38.109375 21.96875 -36.953125 L 19.78125 -31.703125 C 18.414062 -32.378906 17.003906 -32.71875 15.546875 -32.71875 Z M 15.546875 -32.71875 "/></g></g></g><g fill="#ffffff" fill-opacity="1"><g transform="translate(171.58451, 72.624076)"><g><path d="M 11.671875 -35.328125 L 11.671875 -6.625 L 25.4375 -6.625 L 24.5625 0 L 3.3125 0 L 3.3125 -35.328125 Z M 11.671875 -35.328125 "/></g></g></g><g fill="#ffffff" fill-opacity="1"><g transform="translate(199.721731, 72.624076)"><g><path d="M 14.890625 -27.9375 C 19.023438 -27.9375 22.265625 -26.671875 24.609375 -24.140625 C 26.960938 -21.609375 28.140625 -18.0625 28.140625 -13.5 C 28.140625 -10.613281 27.601562 -8.09375 26.53125 -5.9375 C 25.457031 -3.78125 23.925781 -2.109375 21.9375 -0.921875 C 19.945312 0.265625 17.597656 0.859375 14.890625 0.859375 C 10.773438 0.859375 7.535156 -0.40625 5.171875 -2.9375 C 2.804688 -5.46875 1.625 -9.007812 1.625 -13.5625 C 1.625 -16.445312 2.160156 -18.96875 3.234375 -21.125 C 4.304688 -23.28125 5.835938 -24.953125 7.828125 -26.140625 C 9.816406 -27.335938 12.171875 -27.9375 14.890625 -27.9375 Z M 14.890625 -22.015625 C 13.253906 -22.015625 12.023438 -21.328125 11.203125 -19.953125 C 10.390625 -18.578125 9.984375 -16.445312 9.984375 -13.5625 C 9.984375 -10.601562 10.382812 -8.441406 11.1875 -7.078125 C 11.988281 -5.722656 13.222656 -5.046875 14.890625 -5.046875 C 16.515625 -5.046875 17.734375 -5.734375 18.546875 -7.109375 C 19.367188 -8.484375 19.78125 -10.613281 19.78125 -13.5 C 19.78125 -16.457031 19.378906 -18.613281 18.578125 -19.96875 C 17.773438 -21.332031 16.546875 -22.015625 14.890625 -22.015625 Z M 14.890625 -22.015625 "/></g></g></g><g fill="#ffffff" fill-opacity="1"><g transform="translate(231.478009, 72.624076)"><g><path d="M 14.890625 -27.9375 C 16.753906 -27.9375 18.429688 -27.660156 19.921875 -27.109375 C 21.421875 -26.566406 22.832031 -25.738281 24.15625 -24.625 L 20.6875 -19.828125 C 18.988281 -21.117188 17.273438 -21.765625 15.546875 -21.765625 C 13.742188 -21.765625 12.382812 -21.097656 11.46875 -19.765625 C 10.550781 -18.441406 10.09375 -16.304688 10.09375 -13.359375 C 10.09375 -10.503906 10.550781 -8.476562 11.46875 -7.28125 C 12.382812 -6.09375 13.707031 -5.5 15.4375 -5.5 C 16.351562 -5.5 17.1875 -5.644531 17.9375 -5.9375 C 18.6875 -6.226562 19.585938 -6.695312 20.640625 -7.34375 L 24.15625 -2.34375 C 21.46875 -0.207031 18.425781 0.859375 15.03125 0.859375 C 12.28125 0.859375 9.898438 0.273438 7.890625 -0.890625 C 5.890625 -2.066406 4.34375 -3.710938 3.25 -5.828125 C 2.164062 -7.953125 1.625 -10.441406 1.625 -13.296875 C 1.625 -16.148438 2.164062 -18.679688 3.25 -20.890625 C 4.34375 -23.097656 5.890625 -24.820312 7.890625 -26.0625 C 9.898438 -27.3125 12.234375 -27.9375 14.890625 -27.9375 Z M 14.890625 -27.9375 "/></g></g></g><g fill="#ffffff" fill-opacity="1"><g transform="translate(257.882155, 72.624076)"><g><path d="M 11.21875 -38.6875 L 11.21875 0 L 3.15625 0 L 3.15625 -37.8125 Z M 27.9375 -27.0625 L 19.71875 -15.1875 L 28.59375 0 L 19.515625 0 L 11.46875 -14.78125 L 19.71875 -27.0625 Z M 27.9375 -27.0625 "/></g></g></g><g fill="#ffffff" fill-opacity="1"><g transform="translate(288.007301, 72.624076)"><g><path d="M 14.890625 -27.9375 C 19.023438 -27.9375 22.265625 -26.671875 24.609375 -24.140625 C 26.960938 -21.609375 28.140625 -18.0625 28.140625 -13.5 C 28.140625 -10.613281 27.601562 -8.09375 26.53125 -5.9375 C 25.457031 -3.78125 23.925781 -2.109375 21.9375 -0.921875 C 19.945312 0.265625 17.597656 0.859375 14.890625 0.859375 C 10.773438 0.859375 7.535156 -0.40625 5.171875 -2.9375 C 2.804688 -5.46875 1.625 -9.007812 1.625 -13.5625 C 1.625 -16.445312 2.160156 -18.96875 3.234375 -21.125 C 4.304688 -23.28125 5.835938 -24.953125 7.828125 -26.140625 C 9.816406 -27.335938 12.171875 -27.9375 14.890625 -27.9375 Z M 14.890625 -22.015625 C 13.253906 -22.015625 12.023438 -21.328125 11.203125 -19.953125 C 10.390625 -18.578125 9.984375 -16.445312 9.984375 -13.5625 C 9.984375 -10.601562 10.382812 -8.441406 11.1875 -7.078125 C 11.988281 -5.722656 13.222656 -5.046875 14.890625 -5.046875 C 16.515625 -5.046875 17.734375 -5.734375 18.546875 -7.109375 C 19.367188 -8.484375 19.78125 -10.613281 19.78125 -13.5 C 19.78125 -16.457031 19.378906 -18.613281 18.578125 -19.96875 C 17.773438 -21.332031 16.546875 -22.015625 14.890625 -22.015625 Z M 14.890625 -22.015625 "/></g></g></g><g fill="#ffffff" fill-opacity="1"><g transform="translate(319.763579, 72.624076)"><g><path d="M 26 0 L 19.015625 0 L 18.65625 -3.421875 C 16.6875 -0.566406 13.953125 0.859375 10.453125 0.859375 C 7.972656 0.859375 6.09375 0.113281 4.8125 -1.375 C 3.539062 -2.875 2.90625 -4.960938 2.90625 -7.640625 L 2.90625 -27.0625 L 10.953125 -27.0625 L 10.953125 -8.671875 C 10.953125 -7.335938 11.164062 -6.40625 11.59375 -5.875 C 12.019531 -5.351562 12.675781 -5.09375 13.5625 -5.09375 C 15.257812 -5.09375 16.71875 -6.144531 17.9375 -8.25 L 17.9375 -27.0625 L 26 -27.0625 Z M 26 0 "/></g></g></g><g fill="#ffffff" fill-opacity="1"><g transform="translate(350.908199, 72.624076)"><g><path d="M 20.125 -1.28125 C 19.144531 -0.59375 18 -0.0664062 16.6875 0.296875 C 15.382812 0.671875 14.085938 0.859375 12.796875 0.859375 C 6.878906 0.828125 3.921875 -2.429688 3.921875 -8.921875 L 3.921875 -21.453125 L 0.109375 -21.453125 L 0.109375 -27.0625 L 3.921875 -27.0625 L 3.921875 -32.921875 L 11.984375 -33.84375 L 11.984375 -27.0625 L 18.203125 -27.0625 L 17.328125 -21.453125 L 11.984375 -21.453125 L 11.984375 -9.015625 C 11.984375 -7.765625 12.1875 -6.863281 12.59375 -6.3125 C 13 -5.769531 13.644531 -5.5 14.53125 -5.5 C 15.445312 -5.5 16.414062 -5.789062 17.4375 -6.375 Z M 20.125 -1.28125 "/></g></g></g><g clip-path="url(#id1)"><path fill="#05b7d2" d="M 60.378906 5.042969 C 58.140625 5.40625 55.414062 6.722656 53.683594 8.324219 C 51.953125 9.902344 50.425781 12.496094 49.855469 14.863281 C 49.507812 16.28125 49.550781 19.480469 49.9375 20.921875 C 50.097656 21.589844 50.179688 22.195312 50.097656 22.277344 C 49.652344 22.683594 36.582031 31.816406 36.519531 31.753906 C 36.5 31.714844 36.070312 31.046875 35.601562 30.296875 C 33.75 27.421875 30.390625 24.6875 27.195312 23.472656 C 24.445312 22.417969 23.121094 22.175781 20.109375 22.175781 C 16.996094 22.175781 15 22.601562 12.453125 23.777344 C 5.25 27.078125 0.828125 34.832031 1.765625 42.53125 C 2.335938 47.207031 4.1875 50.851562 7.648438 54.074219 C 9.972656 56.238281 12.699219 57.65625 16.382812 58.628906 C 16.75 58.730469 16.730469 58.832031 15.773438 65.476562 L 14.917969 71.347656 L 13.695312 71.613281 C 9.402344 72.585938 5.511719 76.390625 4.3125 80.785156 C 3.84375 82.507812 3.84375 85.527344 4.289062 87.226562 C 5.511719 91.824219 8.992188 95.289062 13.613281 96.523438 C 15.34375 96.96875 18.378906 96.96875 20.109375 96.5 C 24 95.449219 27.5625 92.269531 28.90625 88.621094 L 29.332031 87.449219 L 30.167969 87.570312 C 30.636719 87.648438 35.296875 88.320312 40.570312 89.066406 L 50.140625 90.425781 L 50.566406 92.144531 C 51.402344 95.324219 52.402344 97.332031 54.394531 99.800781 C 58.140625 104.441406 64.65625 107.03125 70.664062 106.324219 C 74.980469 105.796875 78.335938 104.214844 81.472656 101.257812 C 85.625 97.289062 87.703125 91.699219 87.070312 86.152344 C 86.808594 83.78125 86.398438 82.285156 85.445312 80.21875 C 84.445312 78.050781 83.246094 76.390625 81.414062 74.628906 L 79.945312 73.25 L 80.515625 72.5 C 80.820312 72.097656 82.390625 70.09375 84.015625 68.027344 C 86.765625 64.503906 86.96875 64.277344 87.578125 64.320312 C 87.925781 64.339844 89.046875 64.421875 90.0625 64.5 C 96.046875 64.925781 101.707031 60.894531 103.296875 55.0625 C 103.867188 52.976562 103.785156 49.917969 103.09375 47.832031 C 102.011719 44.550781 99.589844 41.738281 96.554688 40.277344 C 94.253906 39.164062 93.402344 38.984375 90.753906 38.984375 C 88.71875 38.984375 88.1875 39.0625 86.785156 39.550781 C 85.890625 39.855469 84.851562 40.300781 84.503906 40.523438 L 83.832031 40.929688 L 83.34375 40.339844 C 83.078125 40.039062 80.332031 36.859375 77.238281 33.292969 L 71.636719 26.8125 L 72.105469 26.308594 C 73.042969 25.335938 74.203125 23.289062 74.691406 21.8125 C 75.121094 20.535156 75.179688 19.949219 75.160156 17.597656 C 75.160156 15.167969 75.097656 14.722656 74.628906 13.507812 C 73.125 9.578125 70.3125 6.84375 66.425781 5.546875 C 64.734375 4.980469 62.152344 4.757812 60.378906 5.042969 Z M 64.042969 9.597656 C 65.550781 10.246094 66.425781 11.523438 66.648438 13.425781 L 66.792969 14.558594 L 64.898438 14.558594 L 64.898438 13.6875 C 64.898438 11.703125 63.148438 10.550781 61.457031 11.421875 C 60.765625 11.765625 60.214844 12.839844 60.214844 13.832031 C 60.214844 14.539062 60.195312 14.558594 59.402344 14.558594 L 58.589844 14.558594 L 58.589844 13.488281 C 58.609375 11.644531 59.566406 10.144531 61.171875 9.597656 C 62.210938 9.214844 63.128906 9.234375 64.042969 9.597656 Z M 68.277344 15.835938 C 68.746094 16.382812 68.765625 16.503906 68.765625 19.824219 L 68.765625 23.269531 L 68.175781 23.917969 L 67.585938 24.585938 L 63.027344 24.625 C 57.875 24.6875 57.121094 24.5625 56.550781 23.613281 C 56.207031 23.042969 56.144531 22.578125 56.144531 19.886719 C 56.144531 15.003906 55.941406 15.144531 62.824219 15.207031 L 67.789062 15.269531 Z M 51.667969 24.847656 C 51.667969 25.273438 54.152344 27.683594 55.453125 28.535156 C 57.710938 29.992188 59.382812 30.460938 62.457031 30.460938 C 65.207031 30.460938 66.203125 30.238281 68.382812 29.144531 L 69.5 28.574219 L 75.199219 35.15625 C 78.316406 38.761719 81.042969 41.941406 81.246094 42.226562 C 81.636719 42.710938 81.636719 42.710938 80.820312 43.621094 C 80.207031 44.3125 78.703125 46.863281 78.640625 47.308594 C 78.621094 47.390625 39.042969 40.339844 38.921875 40.21875 C 38.859375 40.160156 38.71875 39.410156 38.617188 38.578125 C 38.535156 37.730469 38.3125 36.453125 38.105469 35.703125 C 37.921875 34.972656 37.84375 34.324219 37.921875 34.246094 C 38.230469 33.941406 51.378906 24.707031 51.523438 24.683594 C 51.605469 24.6875 51.667969 24.769531 51.667969 24.847656 Z M 22.105469 29.667969 C 23.855469 30.539062 24.933594 32.363281 25.136719 34.832031 L 25.261719 36.25 L 24.058594 36.191406 L 22.855469 36.128906 L 22.734375 34.914062 C 22.511719 32.484375 21.472656 31.511719 19.355469 31.613281 C 18.359375 31.675781 17.972656 31.796875 17.542969 32.179688 C 16.769531 32.890625 16.242188 34.144531 16.242188 35.28125 L 16.242188 36.25 L 15.082031 36.191406 L 13.898438 36.128906 L 13.960938 34.914062 C 14.0625 32.992188 14.53125 31.835938 15.710938 30.660156 C 16.914062 29.46875 17.625 29.183594 19.621094 29.164062 C 20.78125 29.140625 21.25 29.242188 22.105469 29.667969 Z M 26.828125 37.34375 C 27.132812 37.507812 27.601562 37.890625 27.824219 38.175781 C 28.234375 38.679688 28.253906 38.945312 28.253906 43.5 C 28.234375 48.664062 28.234375 48.664062 27.09375 49.433594 C 26.5625 49.757812 25.953125 49.800781 19.640625 49.800781 C 12.167969 49.800781 12.046875 49.78125 11.171875 48.664062 C 10.765625 48.160156 10.742188 47.875 10.742188 43.542969 C 10.742188 39.550781 10.785156 38.882812 11.089844 38.457031 C 11.457031 37.933594 12.023438 37.445312 12.574219 37.203125 C 12.738281 37.121094 15.894531 37.0625 19.558594 37.0625 C 25.078125 37.042969 26.339844 37.101562 26.828125 37.34375 Z M 93.300781 43.722656 C 94.316406 44.351562 95.050781 45.6875 95.171875 47.167969 L 95.292969 48.382812 L 93.441406 48.382812 L 93.300781 47.429688 C 93.097656 46.113281 92.730469 45.445312 91.976562 45.140625 C 91.222656 44.835938 90.042969 45 89.511719 45.464844 C 89.085938 45.851562 88.71875 46.945312 88.71875 47.816406 C 88.71875 48.339844 88.65625 48.382812 87.90625 48.382812 L 87.089844 48.382812 L 87.089844 47.410156 C 87.089844 46.355469 87.78125 44.65625 88.476562 44.070312 C 89.617188 43.054688 91.957031 42.894531 93.300781 43.722656 Z M 58.242188 49.011719 C 69.011719 50.914062 77.828125 52.472656 77.847656 52.492188 C 78.011719 53 78.296875 55.589844 78.195312 55.691406 C 78.09375 55.753906 69.011719 59.480469 57.976562 63.9375 C 46.945312 68.390625 35.523438 73.007812 32.570312 74.203125 L 27.234375 76.371094 L 26.300781 75.339844 C 25.199219 74.125 23.125 72.726562 21.433594 72.058594 C 20.761719 71.792969 20.191406 71.589844 20.171875 71.570312 C 20.109375 71.570312 21.902344 59.074219 21.984375 59.035156 C 22.003906 58.996094 22.796875 58.832031 23.695312 58.648438 C 28.113281 57.800781 32.164062 55.308594 34.890625 51.785156 C 35.96875 50.40625 37.253906 48.058594 37.722656 46.601562 C 37.925781 45.953125 38.167969 45.546875 38.375 45.546875 C 38.535156 45.546875 47.492188 47.105469 58.242188 49.011719 Z M 96.640625 49.515625 L 97.269531 50.042969 L 97.269531 57.230469 L 96.742188 57.777344 L 96.191406 58.304688 L 86.113281 58.304688 L 85.484375 57.777344 L 84.851562 57.253906 L 84.851562 53.667969 C 84.851562 50.203125 84.871094 50.0625 85.320312 49.65625 C 85.566406 49.433594 85.910156 49.191406 86.074219 49.132812 C 86.238281 49.070312 88.558594 49.011719 91.207031 49.011719 L 96.011719 48.988281 Z M 80.269531 59.175781 C 80.597656 59.644531 81.226562 60.414062 81.65625 60.878906 L 82.429688 61.710938 L 79.128906 65.941406 C 77.316406 68.25 75.730469 70.277344 75.609375 70.398438 C 75.425781 70.601562 74.957031 70.558594 73.347656 70.136719 C 70.476562 69.386719 66.875 69.386719 64.066406 70.113281 C 57.855469 71.734375 52.949219 76.289062 51.074219 82.203125 C 50.730469 83.257812 50.402344 84.390625 50.34375 84.695312 C 50.242188 85.203125 50.160156 85.261719 49.671875 85.160156 C 49.367188 85.101562 44.867188 84.453125 39.652344 83.722656 C 34.441406 82.996094 30.066406 82.328125 29.902344 82.246094 C 29.675781 82.125 29.007812 80.160156 28.800781 79.003906 C 28.78125 78.824219 37.332031 75.257812 53.902344 68.535156 C 67.726562 62.921875 79.191406 58.328125 79.351562 58.328125 C 79.515625 58.328125 79.925781 58.691406 80.269531 59.175781 Z M 18.847656 76.25 C 19.988281 76.917969 20.722656 78.355469 20.722656 79.914062 L 20.722656 80.988281 L 19.90625 80.988281 C 19.113281 80.988281 19.09375 80.96875 19.09375 80.28125 C 19.09375 79.390625 18.683594 78.375 18.113281 77.890625 C 17.625 77.445312 16.160156 77.363281 15.507812 77.707031 C 14.917969 78.011719 14.410156 79.167969 14.410156 80.160156 L 14.410156 80.988281 L 13.492188 80.988281 C 12.597656 80.988281 12.578125 80.96875 12.578125 80.320312 C 12.578125 79.308594 13.125 77.648438 13.695312 76.980469 C 14.835938 75.621094 17.175781 75.277344 18.847656 76.25 Z M 71.332031 76.898438 C 73.085938 77.789062 74.101562 79.53125 74.386719 82.144531 L 74.527344 83.421875 L 72.226562 83.421875 L 72.226562 82.449219 C 72.226562 81.292969 71.558594 79.878906 70.742188 79.289062 C 69.929688 78.703125 68.015625 78.703125 67.21875 79.289062 C 66.183594 80.058594 65.835938 80.707031 65.753906 82.105469 L 65.671875 83.421875 L 63.210938 83.421875 L 63.332031 81.964844 C 63.554688 79.351562 64.859375 77.40625 66.894531 76.636719 C 67.972656 76.210938 70.273438 76.351562 71.332031 76.898438 Z M 22.472656 82.082031 L 23.164062 82.773438 L 23.164062 85.910156 C 23.164062 87.652344 23.082031 89.292969 22.960938 89.578125 C 22.554688 90.648438 22.003906 90.730469 16.425781 90.671875 L 11.316406 90.609375 L 10.828125 90.042969 C 10.359375 89.496094 10.339844 89.375 10.339844 86.195312 C 10.359375 83.863281 10.441406 82.769531 10.625 82.425781 C 11.152344 81.476562 11.519531 81.414062 16.832031 81.394531 L 21.78125 81.394531 Z M 75.953125 84.511719 C 76.320312 84.65625 76.828125 85.039062 77.117188 85.324219 C 77.625 85.890625 77.625 85.890625 77.683594 90.507812 C 77.746094 95.773438 77.683594 96.078125 76.300781 96.785156 C 75.546875 97.171875 75.121094 97.191406 68.949219 97.191406 C 59.667969 97.191406 60.214844 97.597656 60.214844 90.792969 L 60.214844 86.09375 L 60.765625 85.425781 C 61.742188 84.269531 61.945312 84.25 68.929688 84.230469 C 73.878906 84.230469 75.445312 84.289062 75.953125 84.511719 Z M 75.953125 84.511719 " fill-opacity="1" fill-rule="nonzero"/></g><path fill="#05b7d2" d="M 62.089844 18.226562 C 61.398438 18.488281 61.09375 19.300781 61.5 19.886719 C 61.683594 20.148438 61.84375 20.738281 61.886719 21.164062 C 61.949219 21.851562 62.007812 21.953125 62.457031 21.953125 C 62.902344 21.953125 62.964844 21.851562 63.027344 21.101562 C 63.066406 20.636719 63.230469 20.152344 63.390625 20.03125 C 63.738281 19.726562 63.78125 18.734375 63.433594 18.46875 C 62.984375 18.125 62.578125 18.042969 62.089844 18.226562 Z M 62.089844 18.226562 " fill-opacity="1" fill-rule="nonzero"/><path fill="#05b7d2" d="M 18.765625 41.335938 C 17.871094 41.761719 17.605469 43.054688 18.277344 43.722656 C 18.582031 44.027344 18.683594 44.390625 18.683594 45.121094 C 18.683594 45.769531 18.808594 46.234375 19.011719 46.4375 C 19.378906 46.820312 19.417969 46.820312 19.925781 46.558594 C 20.230469 46.375 20.3125 46.113281 20.3125 45.261719 C 20.3125 44.453125 20.414062 44.109375 20.722656 43.824219 C 21.351562 43.257812 21.269531 42.042969 20.597656 41.515625 C 20.007812 41.050781 19.4375 40.992188 18.765625 41.335938 Z M 18.765625 41.335938 " fill-opacity="1" fill-rule="nonzero"/><path fill="#05b7d2" d="M 90.390625 52.148438 C 89.921875 52.472656 89.757812 53.503906 90.144531 53.75 C 90.265625 53.808594 90.347656 54.214844 90.347656 54.621094 C 90.347656 55.550781 90.59375 55.9375 91.082031 55.835938 C 91.367188 55.792969 91.488281 55.570312 91.527344 54.921875 C 91.570312 54.457031 91.734375 53.972656 91.894531 53.851562 C 92.34375 53.464844 92.242188 52.511719 91.734375 52.148438 C 91.488281 51.964844 91.183594 51.824219 91.0625 51.824219 C 90.9375 51.824219 90.632812 51.964844 90.390625 52.148438 Z M 90.390625 52.148438 " fill-opacity="1" fill-rule="nonzero"/><path fill="#05b7d2" d="M 15.835938 84.835938 C 15.347656 85.324219 15.324219 85.628906 15.734375 86.175781 C 15.894531 86.378906 16.039062 86.882812 16.039062 87.289062 C 16.039062 88.867188 17.28125 88.828125 17.464844 87.246094 C 17.523438 86.761719 17.6875 86.171875 17.808594 85.949219 C 18.417969 84.816406 16.792969 83.886719 15.835938 84.835938 Z M 15.835938 84.835938 " fill-opacity="1" fill-rule="nonzero"/><path fill="#05b7d2" d="M 67.75 88.886719 C 67.21875 89.414062 67.199219 90.570312 67.726562 91.054688 C 68.011719 91.316406 68.15625 91.761719 68.195312 92.511719 C 68.238281 93.28125 68.359375 93.667969 68.625 93.828125 C 69.253906 94.234375 69.683594 93.75 69.742188 92.53125 C 69.785156 91.84375 69.949219 91.277344 70.210938 90.953125 C 70.722656 90.304688 70.699219 89.675781 70.171875 89.007812 C 69.644531 88.339844 68.378906 88.261719 67.75 88.886719 Z M 67.75 88.886719 " fill-opacity="1" fill-rule="nonzero"/></svg>